<svg width="94" height="684" viewBox="0 0 94 684" fill="none" xmlns="http://www.w3.org/2000/svg">
<path d="M37.4594 407.989C36.1799 401.696 37.0307 395.075 39.8606 389.336C66.4181 335.409 69.8105 294.755 67.9777 270.137C66.9017 255.755 64.0245 245.083 61.5216 238.157C60.1567 234.386 60.0011 230.294 61.1239 226.445L67.1982 205.747C73.8023 185.354 77.9977 174.704 63.9695 142.575C52.8431 117.107 40.5541 88.9448 5.20124 0L0 2.17073C35.3611 91.1389 47.5489 119.379 58.5969 144.887C62.8233 154.647 67.1122 166.101 67.4707 176.547C67.7982 186.236 64.4765 194.919 61.4356 204.303L55.1665 223.44C53.5987 228.21 53.7086 233.379 55.5408 238.056C58.0437 244.465 61.3736 255.537 62.4807 270.988C64.1883 294.841 60.7806 334.316 34.8933 386.885C31.5248 393.716 30.5113 401.602 32.0242 409.09L88.1183 683.951L93.5446 682.843L37.4588 407.99" fill="#FF6F40"/>
</svg>
